<svg version="1.1" xmlns="http://www.w3.org/2000/svg" xmlns:xlink="http://www.w3.org/1999/xlink" x="0px" y="0px"
	 width="808.18px" height="314.5px" viewBox="0 0 808.18 314.5" style="overflow:visible;enable-background:new 0 0 808.18 314.5;"
	 xml:space="preserve">
<style type="text/css">
	.st0{fill:url(#SVGID_1_);}
	.st1{fill:#F59D1A;}
	.st2{fill:#FEEB18;}
	.st3{fill:#E9501D;}
	.st4{fill:url(#SVGID_2_);}
	.st5{fill:#085D2B;}
	.st6{fill:#84BC26;}
	.st7{fill:url(#SVGID_3_);}
	.st8{fill:url(#SVGID_4_);}
	.st9{fill:url(#SVGID_5_);}
	.st10{fill:url(#SVGID_6_);}
</style>
<defs>
</defs>
<g>
	<path d="M227.63,28.72c-26.86-0.1-43.11,10.63-47.16,34.08c-3.4,20.03-4.59,31.4,9.42,43.99l20.75,21.4
		c7.25,7.36,7.85,13.17,5.93,24.37c-1.06,5.8-5.43,12.82-12.29,12.79c-6.87-0.02-9.73-6.21-8.23-12.38l2.9-15.73
		c1.06-5.59-2.12-9.22-7.53-9.23l-11.86-0.03l18.89,58.74c0.59,0.01,1.18,0.02,1.78,0.02c27.01,0.94,43.48-10.53,47.71-34
		c3.41-20.01,5.45-31.12-9.48-44.22l-21.24-21.24c-6.76-7.54-7.07-13.04-5.16-24.24c1.06-5.82,4.35-13.31,12.62-12.93
		c6.86,0.3,9.14,5.97,7.41,12.87l-2.76,15.29c-0.86,5.6,1.63,8.84,7.05,8.86l12.86,0.5c5.42,0.02,10.86-3.16,11.71-8.76L263.81,63
		C267.83,39.54,255.8,28.07,227.63,28.72z M807.14,106.4l-0.86,5.1c-1.11,6.61-4.93,8.07-11.52,8.05l-23.85-0.1l-8.01,45.94
		l32.35,0.11c6.59,0.03,9.11,1.95,8.05,8.14l-0.87,5.08c-1.08,6.6-4.73,8.08-11.32,8.06l-53.41-0.2c-6.58-0.03-9.75-3.64-8.25-10.22
		L753.09,42.8c1.11-6.8,5.16-10.21,11.75-10.17h3.57l17.66,0.06l14.11,0.05l8,21.31l-25.53-0.08l-7.82,44.02l24.25,0.09
		C805.25,98.1,808.23,99.82,807.14,106.4z M330.39,31.1c30.01,0.11,30.79,22.25,28.4,34.15L354.86,88
		c-2.39,15.3-13.94,32.94-43.49,32.84l-14.05-0.06l-9.79,54.66c-1.09,6.39-5.13,9.57-11.73,9.54l-11.07-0.05
		c-7.02,0-9.77-3.42-8.45-10.23l23.64-133.56c1.11-6.82,5.14-10.2,11.96-10.16L330.39,31.1z M309.46,52.3l-8.44,47.22l7.44,0.02
		c10,0.02,14.27-8.24,16.01-17.4l1.97-11.91c1.95-11.05-0.36-17.87-9.52-17.91L309.46,52.3z M419.22,29.5
		c28.3,0.1,33.12,18.21,30.29,34.16l-15.83,89.75c-2.84,15.94-14.17,34-42.68,33.91l-10.21-0.06c-29.37-0.1-33.14-19.04-30.31-34.36
		l15.85-89.54c2.83-16.15,14.59-33.98,42.46-33.87L419.22,29.5z M418.88,62.05c1.08-6.16-2.09-11.28-8.69-11.3
		c-6.82-0.02-11.73,4.62-12.82,11.22l-16.49,92.95c-1.07,6.17,2.09,11.06,8.89,11.08c6.61,0.03,11.3-5.07,12.82-11.24L418.88,62.05z
		 M618.7,32.11l-30.22-0.1c-6.59-0.02-9.37,3.58-11.75,10.17l-45.07,130.18c-0.06,0.16-0.29,0.15-0.32-0.02l-11.53-55.03
		c10.88-4.85,19.19-14.83,21.6-28.44l3.9-22.97c2.39-11.91,1.6-34.03-28.38-34.15l-38.53-0.13c-6.81-0.03-10.86,3.38-11.95,10.18
		l-23.68,133.57c-1.29,6.77,1.46,10.2,8.48,10.21l11.07,0.04c6.61,0.03,10.64-3.14,11.72-9.52l9.78-54.67l7.02,0.03l6.82,54.29
		c0.62,6.61,1.89,10.01,8.5,10.03l42.81,0.16c6.59,0.01,9.83-3.37,11.73-9.55l6.25-19.53l29.16,0.09l-0.47,18.96
		c-0.25,6.57,1.65,10.18,8.23,10.21l12.14,0.04c6.39,0.03,9.57-3.14,9.61-9.54l1.74-134.68C627.41,35.33,625.3,32.13,618.7,32.11z
		 M512.97,70.89L511,82.59c-1.74,9.14-6.02,17.42-16.01,17.39l-7.47-0.03l8.47-46.98l7.47,0.02
		C512.81,53.02,514.91,60.05,512.97,70.89z M597.37,109.08l-0.51,26.6l-22.77-0.1l8.59-26.55l16.36-56.77l2.57,0.02L597.37,109.08z
		 M707.46,32.43c27.03,0.08,31.23,18.19,28.38,34.14l-15.17,85.92c-2.41,15.52-13.09,34-40.35,33.9l-38.7-0.12
		c-6.61-0.04-9.78-3.67-8.29-10.24l23.67-133.56c1.09-6.81,5.15-10.19,11.75-10.18L707.46,32.43z M686.53,53.63l-19.76,111.43
		l7.45,0.04c10.64,0.02,14.71-9.96,15.82-17.83l13.45-74.85c1.74-8.72,1.55-18.72-9.5-18.76L686.53,53.63z"/>
</g>
<g>
	<g>
		<linearGradient id="SVGID_1_" gradientUnits="userSpaceOnUse" x1="26.6795" y1="139.2919" x2="130.8985" y2="0.9886">
			<stop  offset="0.347" style="stop-color:#E8481D"/>
			<stop  offset="0.7011" style="stop-color:#F1851C"/>
			<stop  offset="0.8848" style="stop-color:#F59D1B"/>
		</linearGradient>
		<path class="st0" d="M127.62,82.47c-5.46,3.71-12.68,8.61-20.4,13.84c-0.49,0.34-1,0.68-1.51,1.03
			c-21.59,14.64-46.25,31.34-46.25,31.34H12.6L3.91,94.27l0.44-1.3c0,0,0,0,0,0l2.83-8.36c0,0,4.59-6.56,13.6-12.62
			c8.84-5.95,104.93-69.44,108.69-71.91l0.07-0.05L129.59,0c0,0,0.01,0.02,0.02,0.07c0.58,1.87,12.28,39.21,12.92,41.77
			C143.19,44.46,148.59,68.22,127.62,82.47z"/>
		<path class="st1" d="M119.92,8.25c-4.9,4.26-9.8,8.51-14.73,12.74c-2.46,2.12-4.94,4.21-7.42,6.3c-2.49,2.09-4.99,4.16-7.54,6.18
			c-1.27,1.01-2.55,2.02-3.86,3l-0.98,0.74l-0.99,0.72c-0.66,0.48-1.33,0.94-1.99,1.41l-7.99,5.56
			c-5.32,3.71-10.68,7.38-16.04,11.05c-2.67,1.84-5.36,3.65-8.05,5.47l-8.08,5.44c-2.7,1.8-5.41,3.59-8.14,5.36
			c-0.69,0.44-1.36,0.88-2.08,1.31c-0.7,0.41-1.39,0.83-2.08,1.25c-1.37,0.84-2.73,1.7-4.05,2.62c-2.64,1.83-5.12,3.88-7.4,6.14
			c-2.28,2.26-4.36,4.73-6.17,7.39c-0.47,0.66-0.9,1.34-1.34,2.01c-0.42,0.69-0.85,1.37-1.23,2.08c-0.79,1.4-1.53,2.84-2.2,4.31
			c-0.67,1.47-1.28,2.97-1.83,4.49c-0.55,1.52-1.05,3.07-1.48,4.63c0.35-1.59,0.76-3.16,1.23-4.72c0.48-1.55,1.03-3.09,1.64-4.6
			c0.61-1.51,1.31-2.99,2.06-4.44c0.37-0.73,0.78-1.44,1.17-2.15c0.42-0.7,0.83-1.41,1.28-2.09c1.77-2.75,3.81-5.34,6.07-7.71
			c2.27-2.37,4.78-4.51,7.43-6.44c1.33-0.96,2.69-1.88,4.07-2.74c0.69-0.43,1.39-0.86,2.08-1.28c0.67-0.41,1.35-0.86,2.02-1.31
			c2.7-1.79,5.38-3.62,8.06-5.44l16.1-10.95c5.37-3.64,10.72-7.31,16.11-10.94l8.06-5.46c0.67-0.45,1.35-0.9,2.01-1.36l0.99-0.69
			l0.98-0.71c1.31-0.95,2.6-1.92,3.88-2.91c2.57-1.98,5.11-3.98,7.65-6l7.58-6.1C109.77,16.35,114.82,12.26,119.92,8.25z"/>
		<path class="st1" d="M9.81,116.06c0.12-1.58,0.32-3.15,0.58-4.72c0.27-1.56,0.62-3.11,1.04-4.65c0.41-1.54,0.92-3.04,1.5-4.53
			c0.28-0.75,0.6-1.47,0.91-2.21l0.5-1.08c0.09-0.18,0.17-0.36,0.26-0.54l0.27-0.53c0.18-0.35,0.36-0.71,0.55-1.06l0.59-1.04
			c0.39-0.69,0.8-1.38,1.25-2.05c0.9-1.34,1.92-2.58,2.96-3.78c1.05-1.2,2.14-2.36,3.24-3.5c0.55-0.57,1.11-1.14,1.66-1.7l0.84-0.84
			c0.28-0.28,0.58-0.57,0.88-0.84c1.21-1.08,2.48-2.05,3.78-2.98c1.3-0.93,2.61-1.82,3.93-2.7c2.64-1.76,5.31-3.46,7.96-5.19
			c2.65-1.72,5.3-3.45,7.9-5.22c1.29-0.88,2.56-1.85,3.87-2.74c1.3-0.91,2.61-1.8,3.92-2.7c2.62-1.78,5.24-3.54,7.83-5.35l1.94-1.35
			l1.93-1.38c1.29-0.91,2.56-1.85,3.83-2.78c1.28-0.92,2.53-1.88,3.8-2.83c0.63-0.48,1.26-0.95,1.89-1.43l1.87-1.46l1.87-1.46
			c0.62-0.49,1.23-0.99,1.85-1.49l1.85-1.49c0.61-0.5,1.24-0.99,1.84-1.5c9.74-8.05,19.17-16.51,28.44-25.13
			c-8.85,9.05-18.08,17.76-27.71,26c-4.83,4.11-9.78,8.07-14.85,11.89c-5.07,3.81-10.31,7.41-15.54,10.96
			c-1.31,0.89-2.62,1.77-3.91,2.67c-1.31,0.89-2.56,1.83-3.89,2.73c-2.63,1.78-5.29,3.51-7.96,5.22c-2.67,1.7-5.35,3.38-8,5.1
			c-1.32,0.86-2.64,1.73-3.92,2.64c-1.28,0.91-2.55,1.83-3.71,2.85c-0.29,0.26-0.56,0.51-0.85,0.79l-0.85,0.82
			c-0.57,0.55-1.13,1.1-1.69,1.66c-1.12,1.11-2.22,2.24-3.29,3.39c-1.06,1.15-2.1,2.34-3,3.6c-0.45,0.63-0.88,1.29-1.28,1.97
			l-0.6,1.01c-0.2,0.34-0.38,0.69-0.57,1.03l-0.28,0.52c-0.09,0.17-0.18,0.35-0.27,0.52l-0.53,1.05c-0.33,0.71-0.67,1.42-0.97,2.15
			c-0.61,1.45-1.16,2.93-1.63,4.43C10.87,109.82,10.21,112.92,9.81,116.06z"/>
		<path class="st1" d="M14.56,120.98c0.11-6.32,1.47-12.68,4.23-18.43c1.39-2.87,3.08-5.61,5.12-8.08l0.77-0.92
			c0.13-0.15,0.25-0.31,0.39-0.46l0.41-0.44l0.82-0.88l0.85-0.84c0.56-0.57,1.17-1.09,1.75-1.64c0.3-0.27,0.61-0.52,0.91-0.78
			c0.31-0.26,0.61-0.52,0.92-0.77c0.62-0.5,1.25-1,1.89-1.47c0.63-0.49,1.29-0.94,1.93-1.4c1.31-0.91,2.63-1.79,3.96-2.65
			c2.66-1.72,5.31-3.43,7.96-5.16c5.29-3.46,10.55-6.95,15.75-10.54c5.21-3.57,10.36-7.23,15.42-11.01
			c1.26-0.95,2.53-1.89,3.77-2.86l1.87-1.45c0.62-0.48,1.25-0.97,1.85-1.47c1.22-1,2.46-1.97,3.65-3l1.81-1.52
			c0.6-0.51,1.19-1.03,1.78-1.56c4.69-4.21,9.11-8.72,13.22-13.5c2.07-2.39,4.05-4.84,5.98-7.35c0.95-1.26,1.91-2.52,2.82-3.81
			c0.94-1.27,1.83-2.58,2.74-3.88c-0.85,1.34-1.67,2.69-2.55,4c-0.86,1.33-1.78,2.62-2.68,3.92c-1.83,2.58-3.76,5.1-5.75,7.56
			c-2,2.46-4.09,4.85-6.26,7.17c-2.17,2.32-4.43,4.55-6.75,6.71c-4.67,4.31-9.63,8.28-14.66,12.12
			c-5.05,3.83-10.21,7.51-15.42,11.11c-5.23,3.58-10.5,7.07-15.83,10.5c-2.67,1.7-5.35,3.39-8.02,5.08
			c-2.67,1.69-5.3,3.41-7.77,5.33c-2.48,1.92-4.76,4.07-6.8,6.44c-2.05,2.37-3.76,5.01-5.21,7.79c-1.45,2.78-2.55,5.75-3.36,8.79
			c-0.4,1.52-0.73,3.07-0.97,4.62C14.85,117.83,14.67,119.4,14.56,120.98z"/>
		<path class="st1" d="M19.81,123.93c0.42-6.4,2.01-12.78,4.91-18.57c0.35-0.73,0.76-1.43,1.14-2.14c0.2-0.35,0.42-0.69,0.62-1.04
			l0.31-0.52c0.11-0.17,0.22-0.34,0.33-0.51l0.67-1.01c0.22-0.34,0.47-0.66,0.71-0.99c0.24-0.32,0.47-0.66,0.73-0.98L30,97.21
			c0.25-0.32,0.52-0.62,0.79-0.93c0.27-0.3,0.53-0.62,0.81-0.91c0.56-0.59,1.12-1.18,1.71-1.73c0.58-0.57,1.19-1.1,1.8-1.65
			c0.62-0.52,1.24-1.05,1.88-1.54c2.55-2.01,5.29-3.75,8.03-5.43l4.09-2.52c1.36-0.84,2.71-1.71,4.07-2.56
			c5.41-3.44,10.77-6.96,16.05-10.59c2.64-1.81,5.28-3.64,7.88-5.5c1.31-0.93,2.6-1.87,3.9-2.82c1.29-0.95,2.57-1.91,3.85-2.87
			c2.55-1.93,5.08-3.89,7.51-5.97c2.42-2.08,4.75-4.26,6.97-6.55c2.22-2.29,4.34-4.69,6.35-7.17c2-2.49,3.92-5.06,5.72-7.7
			c3.61-5.29,6.78-10.88,9.65-16.62c-2.57,5.88-5.59,11.58-9.05,17.02l-1.33,2.02l-0.33,0.5L110,34.18l-0.69,0.99l-0.69,0.99
			c-0.23,0.33-0.48,0.65-0.72,0.97c-0.48,0.64-0.96,1.3-1.45,1.93l-1.5,1.9c-0.51,0.63-1.03,1.24-1.55,1.86
			c-0.51,0.62-1.06,1.22-1.59,1.82c-0.27,0.3-0.53,0.61-0.81,0.9l-0.83,0.88l-0.83,0.88l-0.85,0.86l-0.85,0.86
			c-0.28,0.29-0.58,0.56-0.87,0.84l-0.87,0.84c-0.29,0.28-0.59,0.55-0.89,0.82l-0.89,0.82l-0.91,0.8c-2.43,2.13-4.96,4.13-7.51,6.1
			c-2.55,1.97-5.14,3.87-7.75,5.75c-2.61,1.88-5.24,3.72-7.89,5.55c-5.32,3.62-10.69,7.15-16.14,10.55
			c-1.37,0.84-2.73,1.69-4.11,2.52l-4.13,2.49c-1.38,0.82-2.74,1.65-4.08,2.52c-0.67,0.43-1.33,0.88-1.99,1.32
			c-0.65,0.46-1.3,0.91-1.93,1.4c-0.64,0.47-1.25,0.98-1.87,1.48c-0.6,0.52-1.21,1.03-1.78,1.58c-0.59,0.53-1.14,1.1-1.7,1.66
			c-0.28,0.28-0.54,0.58-0.81,0.87c-0.27,0.29-0.54,0.58-0.79,0.89l-0.77,0.91c-0.26,0.3-0.49,0.63-0.74,0.94
			c-0.24,0.32-0.49,0.62-0.72,0.95l-0.68,0.98c-0.11,0.16-0.23,0.32-0.34,0.49l-0.32,0.5c-0.21,0.34-0.43,0.67-0.64,1.01
			c-0.4,0.69-0.81,1.37-1.18,2.08C22.32,111.29,20.54,117.55,19.81,123.93z"/>
		<path class="st1" d="M24.37,128.5c0.11-1.62,0.29-3.23,0.54-4.83c0.26-1.6,0.6-3.19,1.01-4.77c0.83-3.15,1.97-6.22,3.44-9.14
			c1.48-2.91,3.28-5.67,5.38-8.19c2.1-2.52,4.51-4.77,7.11-6.77c1.3-1,2.63-1.94,4-2.84c1.36-0.9,2.75-1.75,4.13-2.6l4.13-2.55
			l4.1-2.59c5.46-3.47,10.86-7.04,16.2-10.71c5.34-3.66,10.61-7.42,15.76-11.33c1.28-0.98,2.56-1.97,3.82-2.98
			c1.26-1.01,2.51-2.02,3.69-3.1c2.37-2.15,4.58-4.5,6.64-6.97c4.11-4.95,7.67-10.37,10.68-16.09c1.52-2.85,2.88-5.79,4.11-8.78
			c0.6-1.5,1.19-3.01,1.73-4.54c0.56-1.52,1.06-3.06,1.54-4.61c-1.62,6.28-3.92,12.39-6.76,18.24c-2.87,5.83-6.34,11.4-10.43,16.48
			c-2.05,2.54-4.24,4.97-6.65,7.2c-1.21,1.12-2.46,2.16-3.72,3.19c-1.26,1.03-2.54,2.04-3.82,3.04
			c-5.14,3.98-10.43,7.74-15.77,11.44c-5.36,3.66-10.78,7.23-16.28,10.68l-4.14,2.55l-4.17,2.51c-2.78,1.66-5.53,3.33-8.1,5.25
			c-2.57,1.91-4.96,4.08-7.07,6.49c-2.11,2.41-3.94,5.07-5.47,7.9c-1.54,2.82-2.77,5.82-3.7,8.91c-0.46,1.55-0.85,3.12-1.16,4.7
			C24.81,125.28,24.56,126.89,24.37,128.5z"/>
		<path class="st1" d="M27.84,129.33c0.11-1.6,0.44-3.19,0.91-4.73c0.48-1.54,1.09-3.04,1.78-4.5c1.39-2.92,3.07-5.68,4.85-8.36
			c1.79-2.67,3.66-5.32,5.84-7.73l0.82-0.9c0.28-0.3,0.56-0.58,0.84-0.87l0.42-0.44l0.44-0.42l0.88-0.84
			c1.19-1.1,2.42-2.16,3.69-3.16c1.28-1,2.59-1.95,3.92-2.86c1.34-0.91,2.71-1.77,4.08-2.62l4.09-2.53
			c1.35-0.86,2.72-1.71,4.06-2.57c5.41-3.44,10.76-6.98,16.05-10.62c5.29-3.63,10.51-7.36,15.61-11.23
			c1.27-0.97,2.54-1.95,3.79-2.95c1.25-1,2.49-2.01,3.66-3.07c2.35-2.13,4.5-4.48,6.44-7.01c3.87-5.06,6.92-10.73,9.35-16.64
			c1.23-2.95,2.29-5.98,3.26-9.04c0.49-1.53,0.93-3.07,1.36-4.62c0.22-0.77,0.42-1.55,0.62-2.33l0.58-2.34l-0.48,2.36
			c-0.17,0.78-0.34,1.57-0.52,2.35c-0.37,1.56-0.76,3.13-1.19,4.68c-0.85,3.1-1.84,6.17-2.98,9.19c-1.14,3.01-2.46,5.97-3.96,8.83
			c-0.74,1.43-1.56,2.84-2.41,4.21c-0.86,1.37-1.77,2.72-2.73,4.02c-1.93,2.6-4.09,5.06-6.48,7.26c-1.2,1.11-2.44,2.14-3.69,3.16
			c-1.25,1.02-2.51,2.02-3.78,3.01c-5.09,3.94-10.33,7.68-15.62,11.34c-5.31,3.64-10.69,7.17-16.13,10.59
			c-1.36,0.86-2.74,1.69-4.1,2.54l-4.13,2.49c-2.75,1.65-5.42,3.38-7.96,5.29c-1.26,0.97-2.49,1.98-3.68,3.04l-0.87,0.81l-0.44,0.41
			l-0.42,0.42c-0.28,0.28-0.57,0.56-0.84,0.84l-0.82,0.87c-2.19,2.31-4.1,4.88-5.95,7.49c-1.85,2.61-3.6,5.3-5.08,8.14
			c-0.74,1.42-1.4,2.88-1.93,4.39C28.42,126.18,28.02,127.74,27.84,129.33z"/>
		<path class="st1" d="M32.91,128.5c0.51-1.51,1.14-2.98,1.86-4.4c0.72-1.42,1.53-2.8,2.39-4.15c1.74-2.68,3.7-5.22,5.79-7.63
			c2.1-2.41,4.33-4.71,6.64-6.91c2.33-2.19,4.74-4.29,7.24-6.29c1.25-1,2.52-1.97,3.83-2.89c0.65-0.46,1.32-0.92,2-1.36
			c0.69-0.44,1.36-0.84,2.04-1.27l2.03-1.25l2.02-1.27c1.35-0.84,2.68-1.71,4.02-2.56c5.36-3.42,10.63-6.97,15.86-10.58
			c1.31-0.9,2.6-1.82,3.91-2.73c1.29-0.93,2.59-1.84,3.87-2.78c2.57-1.86,5.12-3.76,7.63-5.7l0.94-0.73l0.93-0.74l0.93-0.74
			l0.92-0.75c0.3-0.25,0.61-0.5,0.91-0.76c0.29-0.26,0.6-0.5,0.88-0.77c0.29-0.26,0.58-0.52,0.86-0.8l0.42-0.41l0.41-0.42
			c2.18-2.25,4.06-4.78,5.64-7.49c0.8-1.36,1.52-2.75,2.2-4.18c0.67-1.43,1.29-2.88,1.86-4.36c0.58-1.47,1.09-2.97,1.59-4.47
			c0.48-1.51,0.95-3.03,1.37-4.56c1.71-6.11,2.96-12.36,4.05-18.63c-0.8,6.31-1.86,12.61-3.4,18.8c-0.37,1.55-0.81,3.09-1.26,4.62
			c-0.47,1.53-0.96,3.05-1.5,4.56c-0.55,1.5-1.14,3-1.8,4.46c-0.66,1.46-1.38,2.9-2.17,4.3c-1.58,2.8-3.46,5.46-5.69,7.81
			l-0.42,0.44l-0.43,0.43c-0.28,0.29-0.58,0.56-0.88,0.84c-0.29,0.28-0.6,0.54-0.91,0.81c-0.3,0.26-0.61,0.52-0.92,0.78l-0.92,0.77
			l-0.93,0.76l-0.93,0.76l-0.94,0.74c-1.25,0.99-2.52,1.96-3.78,2.93c-1.28,0.96-2.55,1.91-3.84,2.85c-1.28,0.95-2.58,1.87-3.88,2.8
			c-1.3,0.92-2.6,1.85-3.91,2.75c-5.23,3.64-10.55,7.15-15.93,10.57c-1.35,0.85-2.69,1.7-4.05,2.53l-2.03,1.25l-2.05,1.24
			l-2.03,1.23c-0.66,0.42-1.32,0.85-1.97,1.3c-1.3,0.9-2.57,1.84-3.83,2.8c-2.51,1.93-4.94,3.96-7.29,6.09
			c-2.35,2.12-4.62,4.34-6.76,6.67c-2.15,2.33-4.17,4.77-5.99,7.37c-0.91,1.3-1.77,2.63-2.54,4.02
			C34.2,125.58,33.5,127.02,32.91,128.5z"/>
		<path class="st1" d="M36.25,133.92c0.52-1.53,1.16-3.02,1.9-4.47c0.74-1.45,1.56-2.85,2.44-4.21c1.77-2.72,3.78-5.29,5.91-7.74
			c4.29-4.88,9.07-9.32,14.17-13.35c1.28-1.01,2.58-1.98,3.92-2.91c0.67-0.46,1.35-0.92,2.06-1.35l2.06-1.27
			c1.38-0.84,2.74-1.71,4.1-2.57l4.08-2.61c2.71-1.75,5.42-3.52,8.09-5.32L87,86.77l2-1.37c1.34-0.91,2.66-1.83,3.99-2.74
			c5.3-3.69,10.53-7.49,15.61-11.45c0.63-0.5,1.27-1,1.89-1.51c0.62-0.51,1.24-1.01,1.86-1.54c1.24-1.04,2.47-2.07,3.63-3.17
			c1.17-1.09,2.27-2.23,3.28-3.46c1.01-1.23,1.92-2.53,2.73-3.9c1.61-2.74,2.83-5.72,3.79-8.78c0.95-3.06,1.66-6.21,2.24-9.38
			c1.14-6.35,1.7-12.8,2.13-19.25c-0.14,6.47-0.51,12.94-1.47,19.36c-0.48,3.21-1.14,6.4-2.04,9.53c-0.47,1.56-0.96,3.12-1.58,4.63
			c-0.62,1.51-1.32,3-2.13,4.43c-0.81,1.43-1.73,2.8-2.76,4.09c-1.02,1.29-2.15,2.5-3.33,3.63c-1.18,1.13-2.42,2.2-3.65,3.25
			c-0.61,0.53-1.24,1.05-1.86,1.57c-0.62,0.52-1.26,1.03-1.89,1.54c-5.06,4.07-10.31,7.86-15.61,11.59
			c-2.66,1.85-5.33,3.69-8.03,5.47c-2.69,1.8-5.41,3.56-8.14,5.31c-2.73,1.74-5.48,3.45-8.26,5.12L67.31,101
			c-0.68,0.41-1.35,0.84-2.01,1.29c-1.33,0.9-2.62,1.85-3.91,2.81c-2.56,1.94-5.04,4-7.44,6.15c-2.4,2.15-4.71,4.39-6.9,6.76
			c-2.19,2.36-4.26,4.84-6.11,7.47c-0.93,1.32-1.8,2.67-2.59,4.08C37.55,130.97,36.84,132.42,36.25,133.92z"/>
		<path class="st1" d="M41.92,137.06c1.01-3.07,2.21-6.09,3.75-8.95c0.77-1.43,1.61-2.83,2.54-4.17c0.94-1.33,1.96-2.61,3.05-3.83
			c2.2-2.43,4.69-4.55,7.22-6.57l1.91-1.5c0.64-0.49,1.27-1.01,1.94-1.48l3.95-2.83c5.26-3.76,10.59-7.42,15.91-11.08l15.98-10.96
			c2.66-1.83,5.31-3.67,7.95-5.53c2.63-1.86,5.27-3.72,7.84-5.65c1.29-0.97,2.56-1.94,3.78-2.97c1.22-1.03,2.41-2.1,3.53-3.23
			c2.25-2.25,4.25-4.75,5.87-7.49c0.81-1.37,1.54-2.79,2.17-4.25c0.17-0.36,0.31-0.73,0.46-1.1c0.15-0.37,0.3-0.74,0.43-1.12
			l0.4-1.13l0.36-1.14c0.94-3.06,1.51-6.23,1.89-9.42c0.7-6.39,0.47-12.88-0.18-19.3c0.94,6.39,1.37,12.89,0.84,19.36
			c-0.15,1.62-0.33,3.23-0.62,4.83c-0.27,1.61-0.63,3.19-1.07,4.77c-0.88,3.14-2.1,6.2-3.74,9.04c-1.63,2.85-3.64,5.47-5.93,7.81
			c-1.14,1.17-2.35,2.28-3.58,3.34c-1.24,1.07-2.52,2.07-3.81,3.05c-5.16,3.93-10.47,7.61-15.78,11.3l-7.98,5.5l-8,5.47
			c-5.33,3.64-10.65,7.31-15.94,11l-3.95,2.78c-0.66,0.46-1.28,0.95-1.93,1.43l-1.93,1.46c-2.57,1.94-5.05,3.96-7.28,6.26
			c-1.11,1.15-2.15,2.36-3.12,3.63c-0.96,1.28-1.86,2.61-2.68,3.99C44.51,131.14,43.13,134.06,41.92,137.06z"/>
		<path class="st1" d="M46.81,142.98c1.04-3.23,2.24-6.42,3.66-9.53c0.72-1.55,1.5-3.07,2.4-4.54c0.89-1.47,1.88-2.88,2.98-4.21
			c2.2-2.66,4.79-4.96,7.47-7.07l0.51-0.4c0.17-0.14,0.34-0.27,0.51-0.39l1.04-0.75c0.69-0.5,1.39-0.99,2.08-1.48
			c1.39-0.98,2.79-1.95,4.19-2.92c11.22-7.69,22.69-14.99,34.05-22.42c2.84-1.86,5.66-3.74,8.47-5.64c1.4-0.95,2.79-1.92,4.17-2.9
			c1.37-0.99,2.73-1.99,4.02-3.06c2.58-2.15,4.96-4.53,7.01-7.18c2.05-2.65,3.74-5.57,5.01-8.67c1.27-3.1,2.15-6.37,2.64-9.7
			c0.25-1.66,0.41-3.34,0.48-5.03c0.07-1.68,0.08-3.37,0.01-5.06c-0.27-6.76-1.66-13.46-3.55-19.97c0.53,1.61,1.03,3.24,1.49,4.87
			c0.46,1.64,0.86,3.29,1.22,4.96c0.71,3.33,1.22,6.71,1.45,10.11c0.23,3.4,0.18,6.84-0.27,10.24c-0.43,3.4-1.26,6.76-2.52,9.96
			c-1.26,3.2-2.96,6.24-5.03,8.99c-2.06,2.77-4.5,5.23-7.12,7.45c-1.32,1.11-2.69,2.14-4.06,3.15c-1.38,1-2.77,1.99-4.17,2.96
			c-2.8,1.94-5.63,3.82-8.47,5.69c-11.34,7.5-22.82,14.76-34.06,22.37c-1.4,0.95-2.8,1.91-4.2,2.87c-0.69,0.49-1.4,0.97-2.08,1.45
			l-1.03,0.73c-0.35,0.24-0.67,0.5-1,0.75c-1.34,1.03-2.65,2.08-3.92,3.19c-1.26,1.11-2.46,2.28-3.56,3.54
			c-0.55,0.63-1.08,1.28-1.59,1.94c-0.5,0.67-1,1.35-1.46,2.05c-0.46,0.7-0.91,1.42-1.33,2.15c-0.43,0.72-0.84,1.47-1.23,2.21
			C49.43,136.71,48.1,139.84,46.81,142.98z"/>
		<path class="st2" d="M20.79,71.99c8.84-5.95,104.93-69.44,108.69-71.91L17.68,76.25c0,0-8.31,5.49-12.78,15.56
			c-0.2,0.45-0.38,0.83-0.54,1.15l2.83-8.36C7.19,84.61,11.78,78.05,20.79,71.99z"/>
		<path class="st3" d="M127.62,82.47c-5.46,3.71-12.68,8.61-20.4,13.84c20.54-14,23.28-17.42,29.46-25.42
			c8.63-12.45,5.02-28.07,4.37-30.69c-0.66-2.62-11.58-40.12-11.58-40.12s0.05,0,0.13,0c0.58,1.87,12.28,39.21,12.92,41.77
			C143.19,44.46,148.59,68.22,127.62,82.47z"/>
	</g>
	<g>
		
			<linearGradient id="SVGID_2_" gradientUnits="userSpaceOnUse" x1="2161.7588" y1="-1242.6794" x2="2265.9778" y2="-1380.9827" gradientTransform="matrix(-1 5.157332e-03 -5.157332e-03 -1 2320.272 -1079.1278)">
			<stop  offset="0.347" style="stop-color:#E8481D"/>
			<stop  offset="0.7011" style="stop-color:#F1851C"/>
			<stop  offset="0.8848" style="stop-color:#F59D1B"/>
		</linearGradient>
		<path class="st4" d="M64.3,232.02c5.44-3.74,12.64-8.68,20.33-13.95c0.49-0.34,0.99-0.68,1.5-1.03
			c21.51-14.75,46.09-31.58,46.09-31.58l46.86-0.24l8.86,34.36l-0.43,1.3c0,0,0,0,0,0l-2.79,8.37c0,0-4.56,6.58-13.54,12.69
			c-8.81,5.99-104.58,69.98-108.31,72.47l-0.07,0.05l-0.04,0.03c0,0-0.01-0.02-0.02-0.07c-0.59-1.86-12.48-39.15-13.14-41.7
			C48.93,270.12,43.41,246.39,64.3,232.02z"/>
		<path class="st1" d="M72.39,306.21c4.88-4.28,9.76-8.56,14.66-12.82c2.45-2.13,4.92-4.24,7.39-6.34c2.48-2.1,4.97-4.19,7.5-6.22
			c1.27-1.02,2.54-2.03,3.84-3.02l0.97-0.74l0.99-0.72c0.66-0.49,1.32-0.95,1.99-1.42l7.96-5.6c5.3-3.74,10.65-7.43,15.98-11.13
			c2.66-1.85,5.35-3.68,8.03-5.51l8.05-5.48c2.69-1.82,5.39-3.62,8.11-5.4c0.68-0.44,1.36-0.89,2.08-1.32
			c0.7-0.42,1.39-0.83,2.07-1.26c1.37-0.85,2.72-1.72,4.04-2.64c2.63-1.84,5.1-3.9,7.37-6.18c2.27-2.27,4.33-4.75,6.14-7.42
			c0.46-0.66,0.89-1.34,1.32-2.02c0.41-0.69,0.84-1.38,1.22-2.09c0.79-1.41,1.52-2.85,2.18-4.32c0.66-1.47,1.27-2.98,1.81-4.5
			c0.55-1.52,1.03-3.07,1.46-4.64c-0.34,1.59-0.74,3.16-1.21,4.72c-0.47,1.56-1.01,3.09-1.62,4.61c-0.6,1.52-1.29,3-2.03,4.45
			c-0.36,0.73-0.77,1.44-1.16,2.16c-0.42,0.7-0.82,1.41-1.27,2.1c-1.75,2.76-3.78,5.36-6.03,7.74c-2.26,2.38-4.75,4.54-7.4,6.48
			c-1.32,0.97-2.68,1.89-4.06,2.77c-0.69,0.44-1.38,0.87-2.07,1.29c-0.67,0.41-1.34,0.87-2.01,1.32c-2.69,1.8-5.36,3.65-8.03,5.48
			l-16.04,11.03c-5.35,3.67-10.69,7.37-16.05,11.02l-8.03,5.5c-0.67,0.46-1.35,0.91-2,1.37l-0.99,0.69l-0.98,0.72
			c-1.3,0.95-2.59,1.94-3.87,2.93c-2.55,1.99-5.09,4.01-7.62,6.04l-7.55,6.14C82.49,298.06,77.47,302.17,72.39,306.21z"/>
		<path class="st1" d="M181.94,197.83c-0.12,1.58-0.3,3.15-0.56,4.72c-0.26,1.56-0.6,3.12-1.01,4.65c-0.4,1.54-0.91,3.05-1.47,4.54
			c-0.27,0.75-0.59,1.48-0.9,2.21l-0.5,1.09c-0.08,0.18-0.16,0.36-0.25,0.54l-0.27,0.53c-0.18,0.35-0.35,0.71-0.55,1.06l-0.58,1.05
			c-0.39,0.7-0.8,1.38-1.24,2.06c-0.89,1.34-1.9,2.59-2.94,3.79c-1.05,1.2-2.13,2.37-3.22,3.52c-0.55,0.57-1.1,1.15-1.65,1.71
			l-0.83,0.85c-0.27,0.28-0.58,0.57-0.87,0.84c-1.2,1.09-2.47,2.06-3.76,3c-1.29,0.94-2.6,1.83-3.92,2.72
			c-2.63,1.77-5.29,3.49-7.93,5.23c-2.64,1.73-5.29,3.47-7.88,5.26c-1.29,0.89-2.55,1.86-3.86,2.76c-1.3,0.92-2.6,1.82-3.9,2.72
			c-2.61,1.79-5.23,3.57-7.81,5.39l-1.94,1.36l-1.92,1.39c-1.29,0.92-2.55,1.87-3.82,2.8c-1.28,0.93-2.52,1.9-3.78,2.85
			c-0.63,0.48-1.26,0.95-1.88,1.44l-1.86,1.47l-1.86,1.47c-0.62,0.49-1.22,1-1.84,1.5l-1.84,1.49c-0.61,0.5-1.23,0.99-1.83,1.51
			c-9.7,8.1-19.08,16.61-28.31,25.27c8.81-9.1,17.99-17.85,27.58-26.14c4.8-4.14,9.74-8.13,14.79-11.97
			c5.06-3.83,10.27-7.46,15.48-11.04c1.31-0.89,2.61-1.79,3.9-2.69c1.31-0.89,2.55-1.85,3.87-2.75c2.63-1.8,5.27-3.54,7.93-5.26
			c2.66-1.71,5.34-3.41,7.97-5.14c1.32-0.87,2.63-1.75,3.91-2.66c1.28-0.91,2.54-1.85,3.7-2.87c0.29-0.26,0.56-0.51,0.85-0.79
			l0.85-0.83c0.56-0.55,1.12-1.11,1.68-1.67c1.11-1.12,2.21-2.25,3.27-3.41c1.06-1.16,2.08-2.35,2.98-3.62
			c0.45-0.64,0.87-1.29,1.27-1.97l0.6-1.01c0.2-0.34,0.38-0.69,0.57-1.03l0.28-0.52c0.09-0.17,0.18-0.35,0.27-0.53l0.53-1.06
			c0.33-0.71,0.66-1.43,0.96-2.16c0.61-1.45,1.15-2.93,1.61-4.44C180.91,204.07,181.56,200.97,181.94,197.83z"/>
		<path class="st1" d="M177.16,192.94c-0.07,6.32-1.41,12.68-4.14,18.46c-1.38,2.87-3.06,5.62-5.08,8.1l-0.77,0.92
			c-0.13,0.15-0.25,0.31-0.39,0.46l-0.41,0.44l-0.81,0.88l-0.85,0.85c-0.56,0.58-1.16,1.1-1.74,1.65c-0.29,0.27-0.6,0.52-0.91,0.78
			c-0.3,0.26-0.6,0.53-0.92,0.77c-0.62,0.5-1.24,1-1.88,1.48c-0.63,0.49-1.28,0.95-1.93,1.41c-1.3,0.92-2.62,1.8-3.95,2.67
			c-2.65,1.73-5.3,3.45-7.93,5.2c-5.27,3.48-10.52,7.01-15.7,10.62c-5.19,3.6-10.32,7.28-15.36,11.09c-1.25,0.96-2.52,1.9-3.76,2.88
			l-1.86,1.46c-0.62,0.49-1.24,0.97-1.85,1.48c-1.21,1-2.45,1.98-3.64,3.02l-1.8,1.53c-0.6,0.51-1.18,1.04-1.77,1.57
			c-4.67,4.23-9.06,8.76-13.15,13.57c-2.05,2.4-4.02,4.86-5.94,7.38c-0.94,1.27-1.89,2.53-2.8,3.82c-0.93,1.28-1.81,2.59-2.71,3.89
			c0.84-1.34,1.66-2.69,2.53-4.01c0.86-1.33,1.76-2.63,2.66-3.94c1.82-2.59,3.73-5.12,5.71-7.59c1.99-2.47,4.06-4.87,6.22-7.2
			c2.15-2.33,4.4-4.57,6.72-6.75c4.65-4.33,9.58-8.33,14.6-12.2c5.03-3.86,10.17-7.56,15.36-11.18c5.21-3.6,10.47-7.13,15.78-10.58
			c2.66-1.72,5.33-3.42,7.99-5.12c2.66-1.7,5.28-3.43,7.74-5.37c2.47-1.93,4.74-4.1,6.77-6.47c2.03-2.38,3.74-5.03,5.17-7.81
			c1.44-2.79,2.52-5.76,3.31-8.8c0.4-1.52,0.71-3.07,0.95-4.63C176.9,196.09,177.06,194.51,177.16,192.94z"/>
		<path class="st1" d="M171.9,190.01c-0.39,6.41-1.95,12.79-4.82,18.6c-0.34,0.73-0.75,1.43-1.13,2.15c-0.2,0.35-0.41,0.7-0.62,1.04
			l-0.31,0.52c-0.11,0.17-0.22,0.34-0.33,0.51l-0.67,1.02c-0.22,0.34-0.47,0.66-0.7,0.99c-0.24,0.33-0.47,0.66-0.72,0.98l-0.76,0.95
			c-0.25,0.32-0.52,0.62-0.78,0.93c-0.27,0.3-0.52,0.62-0.81,0.91c-0.56,0.59-1.11,1.19-1.7,1.74c-0.57,0.58-1.19,1.11-1.79,1.65
			c-0.62,0.52-1.23,1.06-1.87,1.55c-2.54,2.03-5.27,3.78-8,5.47l-4.08,2.55c-1.36,0.85-2.7,1.72-4.06,2.58
			c-5.39,3.47-10.73,7.02-16,10.67c-2.64,1.82-5.26,3.66-7.86,5.54c-1.3,0.93-2.59,1.89-3.88,2.84c-1.28,0.96-2.57,1.92-3.84,2.89
			c-2.54,1.94-5.06,3.92-7.48,6c-2.41,2.09-4.73,4.29-6.94,6.59c-2.21,2.3-4.32,4.71-6.31,7.2c-1.99,2.5-3.89,5.08-5.68,7.73
			c-3.58,5.31-6.73,10.91-9.56,16.67c2.54-5.9,5.53-11.61,8.97-17.06l1.32-2.02l0.33-0.51l0.34-0.5l0.69-0.99l0.69-0.99
			c0.23-0.33,0.48-0.65,0.71-0.98c0.48-0.65,0.95-1.3,1.44-1.94l1.49-1.9c0.5-0.63,1.03-1.24,1.54-1.86
			c0.51-0.63,1.05-1.22,1.58-1.83c0.27-0.3,0.53-0.61,0.8-0.91l0.82-0.89l0.82-0.89l0.84-0.87l0.85-0.87
			c0.28-0.29,0.58-0.57,0.86-0.85l0.87-0.84c0.29-0.28,0.59-0.55,0.89-0.83l0.89-0.82l0.91-0.8c2.42-2.14,4.94-4.15,7.47-6.14
			c2.54-1.98,5.12-3.9,7.72-5.79c2.6-1.9,5.22-3.75,7.86-5.59c5.3-3.64,10.65-7.2,16.09-10.64c1.37-0.85,2.72-1.71,4.1-2.55
			l4.12-2.51c1.37-0.83,2.73-1.67,4.07-2.54c0.67-0.43,1.32-0.88,1.98-1.33c0.64-0.46,1.3-0.92,1.92-1.41
			c0.64-0.47,1.24-0.99,1.86-1.49c0.6-0.52,1.2-1.03,1.77-1.59c0.59-0.53,1.14-1.11,1.69-1.67c0.28-0.28,0.54-0.58,0.81-0.87
			c0.26-0.3,0.54-0.58,0.79-0.89l0.76-0.91c0.26-0.3,0.49-0.63,0.73-0.94c0.24-0.32,0.49-0.63,0.71-0.95l0.68-0.98
			c0.11-0.16,0.23-0.33,0.34-0.49l0.32-0.5c0.21-0.34,0.43-0.67,0.63-1.01c0.39-0.69,0.81-1.37,1.17-2.08
			C169.46,202.66,171.2,196.39,171.9,190.01z"/>
		<path class="st1" d="M167.31,185.47c-0.1,1.62-0.27,3.23-0.52,4.84c-0.25,1.6-0.58,3.2-0.99,4.77c-0.81,3.15-1.94,6.23-3.39,9.16
			c-1.46,2.92-3.25,5.68-5.34,8.21c-2.09,2.53-4.49,4.79-7.07,6.81c-1.29,1.01-2.62,1.96-3.98,2.86c-1.36,0.9-2.74,1.76-4.12,2.62
			l-4.12,2.57l-4.09,2.61c-5.44,3.5-10.83,7.09-16.14,10.79c-5.32,3.69-10.57,7.47-15.7,11.41c-1.28,0.99-2.55,1.98-3.81,3
			c-1.25,1.02-2.5,2.04-3.68,3.12c-2.36,2.17-4.55,4.53-6.6,7.01c-4.09,4.97-7.62,10.41-10.59,16.14c-1.5,2.86-2.85,5.8-4.07,8.8
			c-0.6,1.5-1.18,3.01-1.71,4.54c-0.55,1.52-1.04,3.07-1.52,4.62c1.59-6.29,3.85-12.41,6.67-18.27c2.84-5.85,6.28-11.43,10.35-16.53
			c2.03-2.55,4.22-4.99,6.61-7.23c1.2-1.12,2.45-2.17,3.7-3.21c1.25-1.04,2.52-2.05,3.8-3.06c5.12-4,10.39-7.8,15.71-11.52
			c5.34-3.69,10.75-7.28,16.23-10.76l4.13-2.58l4.16-2.53c2.77-1.67,5.51-3.36,8.07-5.29c2.56-1.92,4.93-4.1,7.03-6.52
			c2.1-2.42,3.92-5.09,5.43-7.93c1.53-2.83,2.74-5.83,3.65-8.93c0.45-1.55,0.83-3.12,1.14-4.71
			C166.89,188.68,167.14,187.08,167.31,185.47z"/>
		<path class="st1" d="M163.85,184.65c-0.1,1.6-0.42,3.19-0.89,4.74c-0.47,1.54-1.07,3.04-1.75,4.51c-1.37,2.92-3.04,5.69-4.8,8.39
			c-1.77,2.68-3.64,5.34-5.8,7.76l-0.81,0.91c-0.28,0.3-0.56,0.59-0.84,0.88l-0.42,0.44l-0.43,0.43l-0.87,0.85
			c-1.18,1.11-2.41,2.17-3.68,3.18c-1.27,1-2.58,1.97-3.91,2.88c-1.33,0.92-2.7,1.78-4.06,2.64l-4.08,2.55
			c-1.35,0.87-2.71,1.72-4.05,2.59c-5.39,3.47-10.73,7.04-15.99,10.7c-5.27,3.65-10.47,7.41-15.55,11.31
			c-1.27,0.98-2.53,1.96-3.77,2.97c-1.24,1.01-2.48,2.02-3.64,3.09c-2.34,2.14-4.48,4.51-6.4,7.04c-3.84,5.08-6.86,10.76-9.26,16.69
			c-1.22,2.96-2.26,5.99-3.21,9.06c-0.48,1.53-0.91,3.08-1.33,4.62c-0.21,0.77-0.41,1.55-0.61,2.33l-0.57,2.34l0.47-2.36
			c0.17-0.79,0.33-1.57,0.51-2.36c0.36-1.57,0.74-3.13,1.16-4.68c0.84-3.11,1.81-6.18,2.94-9.2c1.13-3.02,2.43-5.98,3.92-8.85
			c0.74-1.44,1.54-2.84,2.39-4.22c0.85-1.38,1.75-2.73,2.71-4.03c1.92-2.61,4.06-5.08,6.44-7.29c1.19-1.11,2.43-2.15,3.67-3.18
			c1.24-1.03,2.5-2.03,3.77-3.03c5.07-3.97,10.29-7.73,15.56-11.42c5.29-3.67,10.65-7.22,16.07-10.68c1.36-0.86,2.73-1.71,4.09-2.56
			l4.11-2.52c2.74-1.66,5.41-3.4,7.94-5.34c1.26-0.97,2.48-1.99,3.66-3.06l0.87-0.82l0.43-0.41l0.42-0.42
			c0.28-0.28,0.56-0.56,0.84-0.85l0.82-0.87c2.18-2.32,4.07-4.9,5.91-7.52c1.84-2.62,3.57-5.32,5.04-8.16
			c0.73-1.42,1.39-2.88,1.91-4.4C163.27,187.81,163.67,186.24,163.85,184.65z"/>
		<path class="st1" d="M158.77,185.51c-0.51,1.51-1.13,2.98-1.84,4.41c-0.72,1.43-1.51,2.81-2.37,4.16
			c-1.72,2.69-3.67,5.24-5.75,7.66c-2.09,2.42-4.3,4.73-6.61,6.94c-2.31,2.2-4.72,4.32-7.21,6.32c-1.25,1-2.51,1.98-3.82,2.91
			c-0.65,0.47-1.31,0.92-1.99,1.37c-0.69,0.44-1.35,0.85-2.03,1.28l-2.02,1.26l-2.01,1.28c-1.34,0.85-2.67,1.72-4.01,2.58
			c-5.34,3.45-10.59,7.02-15.8,10.66c-1.31,0.9-2.59,1.83-3.89,2.75c-1.29,0.93-2.58,1.85-3.86,2.8c-2.56,1.88-5.1,3.79-7.6,5.74
			l-0.94,0.73l-0.93,0.74l-0.93,0.74l-0.91,0.76c-0.3,0.25-0.61,0.5-0.91,0.76c-0.29,0.26-0.59,0.51-0.88,0.78
			c-0.29,0.27-0.58,0.53-0.85,0.81l-0.42,0.41l-0.41,0.42c-2.16,2.26-4.03,4.8-5.6,7.52c-0.79,1.36-1.51,2.76-2.18,4.19
			c-0.66,1.43-1.27,2.89-1.84,4.37c-0.57,1.48-1.08,2.97-1.57,4.48c-0.47,1.51-0.93,3.03-1.34,4.56
			c-1.68,6.12-2.89,12.37-3.96,18.65c0.77-6.32,1.79-12.62,3.3-18.82c0.37-1.55,0.8-3.09,1.24-4.63c0.46-1.53,0.94-3.06,1.48-4.56
			c0.54-1.51,1.12-3,1.77-4.47c0.65-1.47,1.37-2.91,2.15-4.31c1.57-2.81,3.43-5.48,5.65-7.84l0.42-0.44l0.43-0.43
			c0.28-0.29,0.58-0.56,0.87-0.84c0.29-0.28,0.6-0.54,0.9-0.81c0.3-0.27,0.61-0.52,0.91-0.78l0.91-0.78l0.93-0.76l0.93-0.76
			l0.94-0.75c1.24-1,2.51-1.98,3.77-2.95c1.27-0.96,2.54-1.92,3.83-2.87c1.28-0.95,2.57-1.88,3.86-2.82c1.3-0.92,2.59-1.86,3.9-2.77
			c5.21-3.66,10.51-7.21,15.87-10.66c1.34-0.86,2.68-1.72,4.04-2.56l2.03-1.26l2.04-1.25l2.02-1.24c0.66-0.42,1.31-0.86,1.96-1.31
			c1.29-0.91,2.56-1.85,3.81-2.82c2.5-1.94,4.92-3.99,7.26-6.13c2.34-2.13,4.6-4.36,6.73-6.71c2.14-2.34,4.15-4.8,5.95-7.4
			c0.9-1.3,1.75-2.64,2.52-4.03C157.5,188.43,158.19,187,158.77,185.51z"/>
		<path class="st1" d="M155.41,180.1c-0.51,1.53-1.15,3.03-1.87,4.48c-0.73,1.45-1.54,2.85-2.42,4.22
			c-1.76,2.73-3.75,5.31-5.87,7.77c-4.26,4.91-9.02,9.36-14.1,13.42c-1.27,1.01-2.57,2-3.91,2.93c-0.67,0.47-1.35,0.93-2.05,1.36
			l-2.05,1.29c-1.37,0.85-2.73,1.73-4.09,2.59l-4.07,2.63c-2.7,1.77-5.4,3.55-8.07,5.37l-2,1.36l-1.99,1.38
			c-1.33,0.91-2.65,1.84-3.98,2.77c-5.28,3.72-10.49,7.54-15.55,11.53c-0.63,0.51-1.26,1-1.88,1.52c-0.62,0.52-1.24,1.02-1.85,1.55
			c-1.23,1.05-2.46,2.09-3.61,3.19c-1.16,1.1-2.26,2.25-3.26,3.48c-1,1.23-1.91,2.54-2.71,3.92c-1.6,2.75-2.8,5.74-3.75,8.8
			c-0.94,3.07-1.63,6.22-2.19,9.39c-1.1,6.36-1.64,12.81-2.03,19.26c0.1-6.47,0.44-12.94,1.37-19.37c0.47-3.21,1.11-6.4,1.99-9.54
			c0.46-1.56,0.95-3.12,1.56-4.64c0.61-1.52,1.3-3.01,2.11-4.44c0.8-1.43,1.72-2.81,2.74-4.1c1.02-1.29,2.14-2.51,3.31-3.65
			c1.18-1.14,2.41-2.21,3.63-3.27c0.61-0.53,1.24-1.05,1.85-1.58c0.62-0.53,1.25-1.03,1.88-1.55c5.04-4.09,10.27-7.92,15.55-11.67
			c2.65-1.87,5.31-3.71,8-5.52c2.68-1.81,5.39-3.59,8.11-5.35c2.72-1.75,5.47-3.47,8.23-5.16l2.07-1.27
			c0.68-0.41,1.35-0.85,2.01-1.3c1.32-0.9,2.61-1.86,3.89-2.83c2.55-1.96,5.02-4.03,7.41-6.19c2.39-2.16,4.69-4.42,6.86-6.79
			c2.18-2.37,4.23-4.86,6.07-7.51c0.92-1.32,1.79-2.68,2.57-4.09C154.12,183.07,154.82,181.61,155.41,180.1z"/>
		<path class="st1" d="M149.73,177c-0.99,3.07-2.18,6.1-3.7,8.97c-0.76,1.44-1.59,2.84-2.52,4.18c-0.93,1.34-1.95,2.62-3.03,3.84
			c-2.18,2.44-4.67,4.57-7.19,6.61l-1.9,1.51c-0.63,0.49-1.27,1.02-1.93,1.49l-3.93,2.85c-5.24,3.78-10.55,7.47-15.85,11.17
			l-15.92,11.05c-2.65,1.84-5.29,3.7-7.92,5.57c-2.62,1.88-5.25,3.75-7.81,5.69c-1.28,0.97-2.55,1.96-3.76,2.99
			c-1.22,1.04-2.4,2.12-3.51,3.25c-2.24,2.26-4.22,4.78-5.83,7.52c-0.81,1.37-1.53,2.8-2.15,4.27c-0.16,0.36-0.31,0.74-0.45,1.11
			c-0.14,0.37-0.3,0.74-0.42,1.12l-0.4,1.13l-0.35,1.15c-0.92,3.06-1.48,6.23-1.84,9.42c-0.67,6.4-0.41,12.88,0.28,19.3
			c-0.98-6.38-1.44-12.88-0.94-19.36c0.14-1.62,0.32-3.23,0.6-4.84c0.26-1.61,0.62-3.2,1.04-4.77c0.86-3.14,2.07-6.21,3.7-9.06
			c1.61-2.85,3.61-5.49,5.89-7.84c1.14-1.18,2.33-2.29,3.56-3.36c1.23-1.07,2.51-2.08,3.79-3.07c5.14-3.95,10.43-7.66,15.72-11.38
			l7.95-5.54l7.97-5.51c5.31-3.67,10.61-7.36,15.89-11.08l3.94-2.8c0.66-0.46,1.28-0.95,1.93-1.44l1.92-1.47
			c2.56-1.95,5.03-3.99,7.24-6.3c1.1-1.15,2.14-2.37,3.1-3.65c0.95-1.28,1.85-2.62,2.66-4C147.16,182.93,148.52,180,149.73,177z"/>
		<path class="st1" d="M144.8,171.1c-1.03,3.24-2.2,6.44-3.61,9.55c-0.71,1.55-1.49,3.08-2.38,4.55c-0.88,1.47-1.86,2.89-2.96,4.22
			c-2.19,2.67-4.77,4.98-7.43,7.11l-0.51,0.4c-0.17,0.14-0.34,0.27-0.51,0.39l-1.04,0.75c-0.69,0.51-1.38,0.99-2.07,1.49
			c-1.39,0.99-2.78,1.97-4.17,2.94c-11.18,7.75-22.61,15.1-33.93,22.6c-2.83,1.88-5.64,3.77-8.44,5.69
			c-1.4,0.96-2.78,1.93-4.15,2.92c-1.37,0.99-2.72,2.01-4,3.08c-2.57,2.16-4.94,4.56-6.97,7.22c-2.03,2.66-3.71,5.59-4.96,8.69
			c-1.25,3.11-2.12,6.38-2.59,9.71c-0.24,1.67-0.39,3.35-0.46,5.03c-0.07,1.68-0.06,3.37,0.01,5.06c0.31,6.76,1.73,13.45,3.65,19.96
			c-0.54-1.61-1.05-3.23-1.52-4.87c-0.47-1.63-0.87-3.29-1.24-4.95c-0.73-3.32-1.26-6.7-1.51-10.1c-0.25-3.4-0.21-6.84,0.22-10.24
			c0.42-3.4,1.22-6.77,2.47-9.98c1.25-3.21,2.93-6.25,4.98-9.02c2.05-2.78,4.48-5.25,7.08-7.49c1.32-1.12,2.68-2.15,4.05-3.17
			c1.37-1.01,2.76-2,4.16-2.98c2.79-1.96,5.61-3.85,8.44-5.74c11.3-7.55,22.74-14.88,33.94-22.54c1.4-0.96,2.79-1.92,4.18-2.89
			c0.69-0.49,1.39-0.97,2.07-1.47l1.03-0.74c0.35-0.24,0.67-0.51,1-0.76c1.33-1.04,2.64-2.1,3.9-3.21c1.25-1.11,2.44-2.3,3.54-3.56
			c0.54-0.64,1.08-1.28,1.58-1.95c0.5-0.67,0.99-1.35,1.45-2.06c0.46-0.7,0.9-1.42,1.32-2.15c0.43-0.73,0.83-1.47,1.22-2.22
			C142.22,177.38,143.52,174.25,144.8,171.1z"/>
		<path class="st2" d="M171.19,241.96c-8.81,5.99-104.58,69.98-108.31,72.47l111.4-76.75c0,0,8.28-5.53,12.7-15.63
			c0.2-0.45,0.37-0.83,0.53-1.16l-2.79,8.37C184.72,229.27,180.17,235.85,171.19,241.96z"/>
		<path class="st3" d="M64.3,232.02c5.44-3.74,12.64-8.68,20.33-13.95c-20.47,14.1-23.19,17.54-29.33,25.57
			c-8.57,12.5-4.88,28.1-4.21,30.72c0.67,2.62,11.79,40.06,11.79,40.06s-0.05,0-0.13,0c-0.59-1.86-12.48-39.15-13.14-41.7
			C48.93,270.12,43.41,246.39,64.3,232.02z"/>
	</g>
	<g>
		<path class="st5" d="M185.19,218.22c-0.02,0.52-0.05,1.03-0.08,1.54c-0.59-7.5-3.75-15.19-13.14-20.82
			c-5.64-3.38-12.11-5.1-18.68-5.11c-31.51-0.05-101.04-0.44-101.04-0.44s-22.28-0.66-30.64-16.8
			c-8.36-16.14-12.29-32.28-12.29-32.28s-7.95-23.19-9.01-30.64c-0.27-1.9-0.37-3.74-0.27-5.62c0.05,0.89,0.14,1.78,0.27,2.69
			c1.06,7.46,9.01,30.64,9.01,30.64s3.93,16.14,12.29,32.28c8.36,16.14,30.64,16.8,30.64,16.8s69.53,0.39,101.04,0.45
			c6.57,0.01,13.05,1.73,18.68,5.11C181.94,201.98,184.88,210.29,185.19,218.22z"/>
		<path class="st6" d="M190.26,207.8c-0.21-6.88-1.8-11.94-1.8-11.94s-8.3-29.27-17.15-49.92c-8.85-20.64-34.74-20.21-34.74-20.21
			s-58.11,0-98.67,0c-26.23-1-31.45-17.64-31.82-29.44c-0.03-1.02-0.03-2,0-2.93c0.01,0.48,0.04,0.97,0.07,1.46
			c0.76,11.67,6.59,27.02,31.75,27.98c40.55,0,98.67,0,98.67,0s25.89-0.44,34.74,20.21c8.85,20.65,17.15,49.92,17.15,49.92
			S190.52,199.48,190.26,207.8z"/>
		<linearGradient id="SVGID_3_" gradientUnits="userSpaceOnUse" x1="6.720459e-04" y1="156.9373" x2="190.2599" y2="156.9373">
			<stop  offset="0" style="stop-color:#0A7834"/>
			<stop  offset="0.505" style="stop-color:#2EA737"/>
			<stop  offset="1" style="stop-color:#0B7834"/>
		</linearGradient>
		<path class="st7" d="M190.19,209.23c0.03,0.49,0.05,0.99,0.07,1.51c-0.18,5.87-1.52,12.61-5.54,18.53
			c0.16-1.14,0.29-2.31,0.37-3.5c0.11-1.51,0.15-3.05,0.09-4.61c0.04-0.97,0.04-1.95,0-2.94c-0.31-7.93-3.25-16.24-13.22-22.21
			c-5.64-3.38-12.11-5.1-18.68-5.11c-31.51-0.05-101.04-0.45-101.04-0.45s-22.28-0.65-30.64-16.8
			c-8.36-16.14-12.29-32.28-12.29-32.28s-7.95-23.19-9.01-30.64c-0.13-0.9-0.22-1.8-0.27-2.69c-0.05-0.98-0.05-1.95,0-2.93
			c0.29-5.2,2.16-10.76,6.38-19.03c0.25-0.48,0.5-0.98,0.76-1.48c-0.02,0.08-0.44,1.77-0.76,4.41c-0.15,1.25-0.28,2.72-0.33,4.33
			c-0.03,0.93-0.03,1.92,0,2.93c0.37,11.8,5.59,28.45,31.82,29.44c40.55,0,98.67,0,98.67,0s25.89-0.43,34.74,20.21
			c8.85,20.64,17.15,49.92,17.15,49.92s1.59,5.07,1.8,11.94C190.25,208.27,190.22,208.75,190.19,209.23z"/>
	</g>
</g>
</svg>
